<svg width="27" height="27" viewBox="0 0 27 27" fill="none" xmlns="http://www.w3.org/2000/svg">
<g clip-path="url(#clip0_15_939)">
<path d="M16.1727 22.7114C12.7673 22.7114 10 19.8594 10 16.3557C10 12.852 12.7699 10 16.1727 10C19.5756 10 22.3455 12.852 22.3455 16.3557C22.3455 19.8594 19.5756 22.7114 16.1727 22.7114ZM16.1727 10.9124C13.256 10.9124 10.8862 13.3551 10.8862 16.3557C10.8862 19.3563 13.2585 21.799 16.1727 21.799C19.0869 21.799 21.4593 19.3563 21.4593 16.3557C21.4593 13.3551 19.0869 10.9124 16.1727 10.9124Z" fill="white"/>
<path d="M22.0518 22.8653C21.9378 22.8653 21.8239 22.8209 21.7378 22.7323L21.0263 21.9998C20.8542 21.8225 20.8542 21.5331 21.0263 21.3559C21.1985 21.1786 21.4796 21.1786 21.6517 21.3559L22.3632 22.0884C22.5353 22.2657 22.5353 22.555 22.3632 22.7323C22.2771 22.8209 22.1632 22.8653 22.0492 22.8653H22.0518Z" fill="white"/>
<path d="M25.0267 27.0677C24.7583 27.0677 24.4899 26.9635 24.2874 26.7523L21.4896 23.8716C21.2922 23.6683 21.1833 23.3972 21.1833 23.1104C21.1833 22.8237 21.2922 22.5525 21.4896 22.3492L21.991 21.833C22.1884 21.6297 22.4518 21.5176 22.7303 21.5176C23.0088 21.5176 23.2721 21.6297 23.4696 21.833L26.2673 24.7137C26.6749 25.1334 26.6749 25.819 26.2673 26.2387L25.7635 26.7575C25.5584 26.9687 25.29 27.073 25.0242 27.073L25.0267 27.0677ZM22.7303 22.4248C22.705 22.4248 22.6568 22.43 22.6163 22.4743L22.1125 22.9931C22.072 23.0348 22.0644 23.0843 22.0644 23.1104C22.0644 23.1365 22.0694 23.186 22.1125 23.2277L24.9102 26.1084C24.9735 26.1736 25.0748 26.1736 25.1381 26.1084L25.6419 25.5896C25.7052 25.5244 25.7052 25.4202 25.6419 25.355L22.8442 22.4743C22.8037 22.4326 22.7556 22.4248 22.7303 22.4248Z" fill="white"/>
<path d="M17.0716 20.1122H15.2765C14.9777 20.1122 14.7372 19.8619 14.7372 19.5569V17.8859H13.1142C12.8155 17.8859 12.575 17.6356 12.575 17.3306V15.4823C12.575 15.1747 12.818 14.927 13.1142 14.927H14.7372V13.256C14.7372 12.9483 14.9802 12.7007 15.2765 12.7007H17.0716C17.3703 12.7007 17.6109 12.9509 17.6109 13.256V14.927H19.2338C19.5326 14.927 19.7731 15.1773 19.7731 15.4823V17.3306C19.7731 17.6382 19.53 17.8859 19.2338 17.8859H17.6109V19.5569C17.6109 19.8645 17.3678 20.1122 17.0716 20.1122ZM15.6233 19.1998H16.7247V17.5287C16.7247 17.2211 16.9678 16.9734 17.264 16.9734H18.8869V15.8394H17.264C16.9652 15.8394 16.7247 15.5892 16.7247 15.2842V13.6131H15.6233V15.2842C15.6233 15.5918 15.3803 15.8394 15.084 15.8394H13.4611V16.9734H15.084C15.3828 16.9734 15.6233 17.2237 15.6233 17.5287V19.1998Z" fill="white"/>
<path d="M19.9614 27H0.44308C0.197487 27 0 26.7967 0 26.5438V0.456213C0 0.203341 0.197487 0 0.44308 0H19.9614C20.207 0 20.4044 0.203341 20.4044 0.456213V9.11123C20.4044 9.3641 20.207 9.56744 19.9614 9.56744C19.7158 9.56744 19.5183 9.3641 19.5183 9.11123V0.912426H0.886159V26.0876H19.5183V23.783C19.5183 23.5302 19.7158 23.3268 19.9614 23.3268C20.207 23.3268 20.4044 23.5302 20.4044 23.783V26.5438C20.4044 26.7967 20.207 27 19.9614 27Z" fill="white"/>
<path d="M16.9712 5.09919H3.43325C3.18766 5.09919 2.99017 4.89585 2.99017 4.64298C2.99017 4.39011 3.18766 4.18677 3.43325 4.18677H16.9738C17.2194 4.18677 17.4168 4.39011 17.4168 4.64298C17.4168 4.89585 17.2194 5.09919 16.9738 5.09919H16.9712Z" fill="white"/>
<path d="M16.9712 8.6158H3.43325C3.18766 8.6158 2.99017 8.41245 2.99017 8.15958C2.99017 7.90671 3.18766 7.70337 3.43325 7.70337H16.9738C17.2194 7.70337 17.4168 7.90671 17.4168 8.15958C17.4168 8.41245 17.2194 8.6158 16.9738 8.6158H16.9712Z" fill="white"/>
<path d="M9.23126 12.1353H3.43325C3.18766 12.1353 2.99017 11.932 2.99017 11.6791C2.99017 11.4262 3.18766 11.2229 3.43325 11.2229H9.23126C9.47686 11.2229 9.67434 11.4262 9.67434 11.6791C9.67434 11.932 9.47686 12.1353 9.23126 12.1353Z" fill="white"/>
</g>
<defs>
<clipPath id="clip0_15_939">
<rect width="27" height="27" fill="white"/>
</clipPath>
</defs>
</svg>
