<svg width="33" height="29" viewBox="0 0 33 29" fill="none" xmlns="http://www.w3.org/2000/svg">
<g clip-path="url(#clip0_15_740)">
<path d="M10.6359 11.3581C10.3918 11.3581 10.1955 11.1553 10.1955 10.9032V8.68298C10.1955 8.43081 10.3918 8.22803 10.6359 8.22803H12.7853C13.0294 8.22803 13.2257 8.43081 13.2257 8.68298C13.2257 8.93515 13.0294 9.13793 12.7853 9.13793H11.0764V10.9032C11.0764 11.1553 10.8801 11.3581 10.6359 11.3581Z" fill="white"/>
<path d="M22.3641 11.3581C22.12 11.3581 21.9237 11.1553 21.9237 10.9032V9.13793H20.2148C19.9707 9.13793 19.7744 8.93515 19.7744 8.68298C19.7744 8.43081 19.9707 8.22803 20.2148 8.22803H22.3641C22.6082 8.22803 22.8046 8.43081 22.8046 8.68298V10.9032C22.8046 11.1553 22.6082 11.3581 22.3641 11.3581Z" fill="white"/>
<path d="M17.5747 11.3581C17.3306 11.3581 17.1343 11.1553 17.1343 10.9032V9.13793H15.8658V10.9032C15.8658 11.1553 15.6695 11.3581 15.4254 11.3581C15.1812 11.3581 14.9849 11.1553 14.9849 10.9032V8.68298C14.9849 8.43081 15.1812 8.22803 15.4254 8.22803H17.5747C17.8188 8.22803 18.0151 8.43081 18.0151 8.68298V10.9032C18.0151 11.1553 17.8188 11.3581 17.5747 11.3581Z" fill="white"/>
<path d="M10.6359 15.9052C10.3918 15.9052 10.1955 15.7024 10.1955 15.4503V13.2301C10.1955 12.9779 10.3918 12.7751 10.6359 12.7751H12.7853C13.0294 12.7751 13.2257 12.9779 13.2257 13.2301C13.2257 13.4823 13.0294 13.6851 12.7853 13.6851H11.0764V15.4503C11.0764 15.7024 10.8801 15.9052 10.6359 15.9052Z" fill="white"/>
<path d="M22.3641 15.9052C22.12 15.9052 21.9237 15.7024 21.9237 15.4503V13.6851H20.2148C19.9707 13.6851 19.7744 13.4823 19.7744 13.2301C19.7744 12.9779 19.9707 12.7751 20.2148 12.7751H22.3641C22.6082 12.7751 22.8046 12.9779 22.8046 13.2301V15.4503C22.8046 15.7024 22.6082 15.9052 22.3641 15.9052Z" fill="white"/>
<path d="M17.5747 15.9052C17.3306 15.9052 17.1343 15.7024 17.1343 15.4503V13.6851H15.8658V15.4503C15.8658 15.7024 15.6695 15.9052 15.4254 15.9052C15.1812 15.9052 14.9849 15.7024 14.9849 15.4503V13.2301C14.9849 12.9779 15.1812 12.7751 15.4254 12.7751H17.5747C17.8188 12.7751 18.0151 12.9779 18.0151 13.2301V15.4503C18.0151 15.7024 17.8188 15.9052 17.5747 15.9052Z" fill="white"/>
<path d="M10.6359 20.4599C10.3918 20.4599 10.1955 20.2571 10.1955 20.005V17.7848C10.1955 17.5326 10.3918 17.3298 10.6359 17.3298H12.7853C13.0294 17.3298 13.2257 17.5326 13.2257 17.7848C13.2257 18.037 13.0294 18.2397 12.7853 18.2397H11.0764V20.005C11.0764 20.2571 10.8801 20.4599 10.6359 20.4599Z" fill="white"/>
<path d="M22.3641 20.4599C22.12 20.4599 21.9237 20.2571 21.9237 20.005V18.2397H20.2148C19.9707 18.2397 19.7744 18.037 19.7744 17.7848C19.7744 17.5326 19.9707 17.3298 20.2148 17.3298H22.3641C22.6082 17.3298 22.8046 17.5326 22.8046 17.7848V20.005C22.8046 20.2571 22.6082 20.4599 22.3641 20.4599Z" fill="white"/>
<path d="M17.5747 20.4599C17.3306 20.4599 17.1343 20.2571 17.1343 20.005V18.2397H15.8658V20.005C15.8658 20.2571 15.6695 20.4599 15.4254 20.4599C15.1812 20.4599 14.9849 20.2571 14.9849 20.005V17.7848C14.9849 17.5326 15.1812 17.3298 15.4254 17.3298H17.5747C17.8188 17.3298 18.0151 17.5326 18.0151 17.7848V20.005C18.0151 20.2571 17.8188 20.4599 17.5747 20.4599Z" fill="white"/>
<path d="M11.7534 6.81127H6.63172C6.38759 6.81127 6.19128 6.60849 6.19128 6.35632C6.19128 6.10415 6.38759 5.90137 6.63172 5.90137H11.7534C11.9975 5.90137 12.1938 6.10415 12.1938 6.35632C12.1938 6.60849 11.9975 6.81127 11.7534 6.81127Z" fill="white"/>
<path d="M26.3658 6.81127H21.2441C21 6.81127 20.8037 6.60849 20.8037 6.35632C20.8037 6.10415 21 5.90137 21.2441 5.90137H26.3658C26.6099 5.90137 26.8062 6.10415 26.8062 6.35632C26.8062 6.60849 26.6099 6.81127 26.3658 6.81127Z" fill="white"/>
<path d="M25.4144 29H7.58558C7.34145 29 7.14514 28.7972 7.14514 28.545V6.35632C7.14514 6.10415 7.34145 5.90137 7.58558 5.90137C7.82971 5.90137 8.02601 6.10415 8.02601 6.35632V28.0901H24.974V6.35632C24.974 6.10415 25.1703 5.90137 25.4144 5.90137C25.6586 5.90137 25.8549 6.10415 25.8549 6.35632V28.545C25.8549 28.7972 25.6586 29 25.4144 29Z" fill="white"/>
<path d="M7.58557 28.9999H0.440436C0.196309 28.9999 0 28.7971 0 28.545V10.9032C0 10.651 0.196309 10.4482 0.440436 10.4482H5.82383C6.06795 10.4482 6.26426 10.651 6.26426 10.9032C6.26426 11.1554 6.06795 11.3581 5.82383 11.3581H0.880873V28.09H7.58557C7.8297 28.09 8.02601 28.2928 8.02601 28.545C8.02601 28.7971 7.8297 28.9999 7.58557 28.9999Z" fill="white"/>
<path d="M32.5596 28.9999H25.4144C25.1703 28.9999 24.974 28.7971 24.974 28.545C24.974 28.2928 25.1703 28.09 25.4144 28.09H32.1191V11.3581H27.1762C26.9321 11.3581 26.7357 11.1554 26.7357 10.9032C26.7357 10.651 26.9321 10.4482 27.1762 10.4482H32.5596C32.8037 10.4482 33 10.651 33 10.9032V28.545C33 28.7971 32.8037 28.9999 32.5596 28.9999Z" fill="white"/>
<path d="M17.6451 28.9999H15.3524C15.1082 28.9999 14.9119 28.7972 14.9119 28.545V23.7953C14.9119 23.5431 15.1082 23.3403 15.3524 23.3403H17.6451C17.8893 23.3403 18.0856 23.5431 18.0856 23.7953V28.545C18.0856 28.7972 17.8893 28.9999 17.6451 28.9999ZM15.7928 28.09H17.2047V24.2502H15.7928V28.09Z" fill="white"/>
<path d="M29.9824 25.4045C29.7383 25.4045 29.542 25.2017 29.542 24.9495V23.1843H27.8331C27.5889 23.1843 27.3926 22.9815 27.3926 22.7294C27.3926 22.4772 27.5889 22.2744 27.8331 22.2744H29.9824C30.2265 22.2744 30.4228 22.4772 30.4228 22.7294V24.9495C30.4228 25.2017 30.2265 25.4045 29.9824 25.4045Z" fill="white"/>
<path d="M29.9824 20.4599C29.7383 20.4599 29.542 20.2571 29.542 20.005V18.2397H27.8331C27.5889 18.2397 27.3926 18.037 27.3926 17.7848C27.3926 17.5326 27.5889 17.3298 27.8331 17.3298H29.9824C30.2265 17.3298 30.4228 17.5326 30.4228 17.7848V20.005C30.4228 20.2571 30.2265 20.4599 29.9824 20.4599Z" fill="white"/>
<path d="M2.93708 25.4047C2.69295 25.4047 2.49664 25.202 2.49664 24.9498V22.7296C2.49664 22.4774 2.69295 22.2747 2.93708 22.2747H5.08641C5.33054 22.2747 5.52684 22.4774 5.52684 22.7296C5.52684 22.9818 5.33054 23.1846 5.08641 23.1846H3.37752V24.9498C3.37752 25.202 3.18121 25.4047 2.93708 25.4047Z" fill="white"/>
<path d="M2.93708 20.4599C2.69295 20.4599 2.49664 20.2571 2.49664 20.005V17.7848C2.49664 17.5326 2.69295 17.3298 2.93708 17.3298H5.08641C5.33054 17.3298 5.52684 17.5326 5.52684 17.7848C5.52684 18.037 5.33054 18.2397 5.08641 18.2397H3.37752V20.005C3.37752 20.2571 3.18121 20.4599 2.93708 20.4599Z" fill="white"/>
<path d="M29.9824 15.9052C29.7383 15.9052 29.542 15.7024 29.542 15.4503V13.6851H27.8331C27.5889 13.6851 27.3926 13.4823 27.3926 13.2301C27.3926 12.9779 27.5889 12.7751 27.8331 12.7751H29.9824C30.2265 12.7751 30.4228 12.9779 30.4228 13.2301V15.4503C30.4228 15.7024 30.2265 15.9052 29.9824 15.9052Z" fill="white"/>
<path d="M2.93708 15.9052C2.69295 15.9052 2.49664 15.7024 2.49664 15.4503V13.2301C2.49664 12.9779 2.69295 12.7751 2.93708 12.7751H5.08641C5.33054 12.7751 5.52684 12.9779 5.52684 13.2301C5.52684 13.4823 5.33054 13.6851 5.08641 13.6851H3.37752V15.4503C3.37752 15.7024 3.18121 15.9052 2.93708 15.9052Z" fill="white"/>
<path d="M18.1787 24.2502H14.8188C14.5747 24.2502 14.3784 24.0475 14.3784 23.7953C14.3784 23.5431 14.5747 23.3403 14.8188 23.3403H18.1787C18.4228 23.3403 18.6191 23.5431 18.6191 23.7953C18.6191 24.0475 18.4228 24.2502 18.1787 24.2502Z" fill="white"/>
<path d="M17.5746 6.8113H15.4253C15.1812 6.8113 14.9849 6.60852 14.9849 6.35634V4.97069H13.6434C13.3993 4.97069 13.203 4.76791 13.203 4.51573V2.29556C13.203 2.04339 13.3993 1.84061 13.6434 1.84061H14.9849V0.454953C14.9849 0.202779 15.1812 0 15.4253 0H17.5746C17.8188 0 18.0151 0.202779 18.0151 0.454953V1.84061H19.3565C19.6007 1.84061 19.797 2.04339 19.797 2.29556V4.51573C19.797 4.76791 19.6007 4.97069 19.3565 4.97069H18.0151V6.35634C18.0151 6.60852 17.8188 6.8113 17.5746 6.8113ZM15.8658 5.90139H17.1342V4.51573C17.1342 4.26356 17.3305 4.06078 17.5746 4.06078H18.9161V2.75052H17.5746C17.3305 2.75052 17.1342 2.54774 17.1342 2.29556V0.909906H15.8658V2.29556C15.8658 2.54774 15.6694 2.75052 15.4253 2.75052H14.0839V4.06078H15.4253C15.6694 4.06078 15.8658 4.26356 15.8658 4.51573V5.90139Z" fill="white"/>
</g>
<defs>
<clipPath id="clip0_15_740">
<rect width="33" height="29" fill="white"/>
</clipPath>
</defs>
</svg>
