<svg width="36" height="31" viewBox="0 0 36 31" fill="none" xmlns="http://www.w3.org/2000/svg">
<g clip-path="url(#clip0_15_903)">
<path d="M2.74732 20.7666C2.54214 20.7666 2.33962 20.7189 2.15043 20.6261L0.740803 19.926C0.0799594 19.5972 -0.189175 18.7963 0.138583 18.1387L4.13562 10.154C4.46604 9.49632 5.27078 9.22848 5.93162 9.55466L7.34125 10.2547C8.00209 10.5836 8.27122 11.3844 7.94347 12.0421L3.94643 20.0268C3.78655 20.345 3.51208 20.5837 3.17367 20.695C3.0351 20.7401 2.89121 20.764 2.74732 20.764V20.7666ZM1.1565 19.096L2.56612 19.7961C2.66471 19.8438 2.77396 19.8518 2.87522 19.8173C2.97915 19.7828 3.06175 19.7112 3.10971 19.6131L7.10675 11.6284C7.20535 11.4295 7.12541 11.1855 6.92289 11.0874L5.51327 10.3873C5.31075 10.2866 5.06826 10.3688 4.96967 10.5703L0.972632 18.555C0.871373 18.7539 0.953979 18.9979 1.15383 19.0986L1.1565 19.096Z" fill="white"/>
<path d="M24.5845 22.859C24.3153 22.859 24.0462 22.798 23.7984 22.6734L18.0267 19.812C17.7948 19.698 17.7016 19.4196 17.8161 19.1888C17.9307 18.9581 18.2105 18.8653 18.4424 18.9793L24.2141 21.8407C24.4139 21.9388 24.6378 21.9547 24.8483 21.8858C25.0588 21.8168 25.2293 21.6683 25.3279 21.4694C25.4265 21.2705 25.4425 21.0478 25.3706 20.8383C25.3013 20.6288 25.152 20.4591 24.9522 20.361L18.6502 17.2371C18.4184 17.1231 18.3251 16.8446 18.4397 16.6139C18.5543 16.3832 18.8341 16.2904 19.0659 16.4044L25.3679 19.5283C25.7889 19.7378 26.1033 20.0984 26.2552 20.5413C26.4045 20.9868 26.3725 21.4615 26.162 21.8831C25.9515 22.3021 25.5891 22.615 25.1441 22.7662C24.9602 22.8272 24.771 22.859 24.5818 22.859H24.5845Z" fill="white"/>
<path d="M9.46232 13.2036C8.78815 13.2036 8.08467 13.1081 7.49578 12.8164C7.26395 12.7024 7.17068 12.424 7.28526 12.1933C7.39985 11.9625 7.67964 11.8697 7.91147 11.9838C8.51635 12.2834 9.48097 12.3524 10.6268 12.18C11.6287 12.0262 12.5507 11.9519 13.4594 11.9599C13.7178 11.9599 13.9257 12.1694 13.923 12.4266C13.923 12.6812 13.7125 12.888 13.4567 12.888C13.438 12.888 13.4141 12.888 13.3901 12.888C12.5534 12.888 11.6953 12.957 10.7654 13.0975C10.379 13.1559 9.92864 13.2036 9.46232 13.2036Z" fill="white"/>
<path d="M24.5578 25.731C24.294 25.731 24.0249 25.6726 23.7744 25.548L16.8729 22.1271C16.641 22.0131 16.5478 21.7347 16.6623 21.5039C16.7769 21.2759 17.0567 21.1804 17.2885 21.2945L24.1901 24.7153C24.6005 24.9195 25.1014 24.7525 25.3066 24.3441C25.4052 24.1452 25.4212 23.9224 25.3519 23.7129C25.2826 23.5034 25.1334 23.3337 24.9335 23.2356L18.032 19.8147C17.8002 19.7007 17.7069 19.4223 17.8215 19.1915C17.9361 18.9608 18.2159 18.868 18.4477 18.982L25.3492 22.4029C25.7703 22.6124 26.0847 22.9731 26.2366 23.4159C26.3858 23.8614 26.3538 24.3361 26.1433 24.7578C25.8342 25.373 25.2107 25.731 24.5605 25.731H24.5578Z" fill="white"/>
<path d="M23.3987 28.0459C23.1349 28.0459 22.8657 27.9876 22.6153 27.863L17.8055 25.5612C17.5737 25.4498 17.4751 25.174 17.587 24.9406C17.6989 24.7099 17.976 24.6118 18.2105 24.7232L23.0256 27.0276C23.4413 27.2345 23.9423 27.0674 24.1475 26.659C24.2461 26.4601 24.262 26.2374 24.1928 26.0279C24.1235 25.8184 23.9743 25.6487 23.7744 25.5506L16.8729 22.1297C16.641 22.0157 16.5478 21.7372 16.6623 21.5065C16.7769 21.2784 17.0567 21.183 17.2885 21.297L24.1901 24.7179C24.6111 24.9274 24.9256 25.288 25.0774 25.7309C25.2267 26.1764 25.1947 26.6511 24.9842 27.0727C24.6751 27.6879 24.0515 28.0459 23.4013 28.0459H23.3987Z" fill="white"/>
<path d="M20.1797 29.3347C19.9159 29.3347 19.6468 29.2764 19.3963 29.1517L19.1751 29.043C18.9433 28.929 18.85 28.6505 18.9646 28.4198C19.0792 28.1891 19.3617 28.0963 19.5908 28.2103L19.812 28.319C20.2224 28.5232 20.7233 28.3562 20.9285 27.9478C21.1337 27.5394 20.9658 27.0409 20.5554 26.8367L17.8135 25.5585C17.579 25.4498 17.4804 25.174 17.5896 24.9406C17.6989 24.7072 17.976 24.6091 18.2105 24.7178L20.9631 25.9987C21.8452 26.4362 22.1996 27.4917 21.7652 28.3588C21.4561 28.974 20.8326 29.332 20.1824 29.332L20.1797 29.3347Z" fill="white"/>
<path d="M6.82429 22.6839C6.72304 22.6839 6.61911 22.6521 6.53384 22.5831C6.03821 22.1906 5.67315 21.8035 5.44665 21.4349C4.95102 20.6261 3.87981 20.0214 3.86915 20.0161C3.64532 19.8915 3.56538 19.6077 3.69062 19.385C3.81586 19.1622 4.10098 19.08 4.32481 19.2073C4.37811 19.2365 5.61985 19.9339 6.24339 20.9549C6.4086 21.228 6.70971 21.5409 7.11475 21.8618C7.31726 22.0209 7.34924 22.3126 7.18936 22.5142C7.09609 22.6282 6.96286 22.6892 6.82429 22.6892V22.6839Z" fill="white"/>
<path d="M33.314 20.5544C32.861 20.5544 32.416 20.3237 32.1655 19.9101L27.5316 12.2728C27.1506 11.6443 27.3531 10.8222 27.9846 10.443L29.3329 9.63152C29.9645 9.25231 30.7905 9.45385 31.1716 10.085L35.8055 17.7223C35.9893 18.0272 36.0453 18.3852 35.96 18.73C35.8748 19.0747 35.6589 19.3664 35.3525 19.5521L34.0041 20.3635C33.7883 20.4935 33.5511 20.5544 33.314 20.5544ZM30.0258 10.3687C29.9538 10.3687 29.8819 10.3873 29.8152 10.4271L28.4669 11.2385C28.2751 11.3526 28.2138 11.6018 28.3283 11.7928L32.9622 19.4301C33.0182 19.5229 33.1061 19.5865 33.2127 19.613C33.3193 19.6396 33.4286 19.6237 33.5192 19.568L34.8675 18.7565C34.9608 18.7008 35.0247 18.6133 35.0514 18.5072C35.078 18.4012 35.062 18.2924 35.0061 18.2023L30.3722 10.565C30.3162 10.4722 30.2283 10.4085 30.1217 10.382C30.0897 10.374 30.0551 10.3714 30.0231 10.3714L30.0258 10.3687Z" fill="white"/>
<path d="M18.8634 17.2849C18.7061 17.2849 18.5516 17.2053 18.4637 17.0595C18.3304 16.8394 18.4024 16.5556 18.6209 16.423L19.8226 15.7017C20.0438 15.5691 20.3289 15.6407 20.4622 15.8582C20.5954 16.0783 20.5235 16.362 20.305 16.4946L19.1032 17.2159C19.0286 17.261 18.946 17.2822 18.8634 17.2822V17.2849Z" fill="white"/>
<path d="M14.7198 17.0354C13.8404 17.0354 12.9877 16.5872 12.5107 15.8023C12.3109 15.4734 12.2629 15.073 12.3748 14.7071C12.4868 14.3385 12.7532 14.0361 13.105 13.8744L17.8108 11.7131C18.1999 11.5355 18.6289 11.4824 19.0472 11.5646L23.8463 12.5007C23.8757 12.506 26.2792 12.9834 27.5583 12.217C27.7794 12.0844 28.0645 12.156 28.1978 12.3734C28.331 12.5935 28.2591 12.8773 28.0406 13.0099C26.4471 13.9672 23.7771 13.4342 23.6625 13.4103L18.8687 12.4769C18.6422 12.4318 18.4104 12.461 18.2025 12.5564L13.4967 14.7177C13.3848 14.7681 13.3022 14.8609 13.2675 14.9802C13.2302 15.0969 13.2462 15.2189 13.3101 15.3249C13.7285 16.0144 14.6025 16.2982 15.346 15.9826L17.6936 14.9961C17.7948 14.9537 17.9094 14.9484 18.016 14.9802L20.1957 15.6617C20.4409 15.7386 20.5768 15.9985 20.4995 16.2425C20.4222 16.4864 20.1611 16.6243 19.9159 16.5448L17.8987 15.9137L15.711 16.8338C15.3913 16.9691 15.0529 17.0327 14.7198 17.0327V17.0354Z" fill="white"/>
<path d="M28.0832 23.8189C27.926 23.8189 27.7714 23.7394 27.6835 23.5962C27.5503 23.3761 27.6222 23.0923 27.8407 22.9597L28.315 22.6733C28.6668 22.4294 29.6154 21.6842 29.9512 21.0159C30.4894 19.9472 31.6725 19.1517 31.7232 19.1199C31.9364 18.9767 32.2268 19.035 32.3707 19.2471C32.5146 19.4593 32.456 19.7483 32.2428 19.8915C32.2188 19.9075 31.2116 20.5916 30.7852 21.4323C30.2683 22.4585 28.8906 23.4052 28.832 23.445C28.824 23.4503 28.816 23.4556 28.808 23.4583L28.3204 23.75C28.2458 23.7951 28.1605 23.8163 28.0805 23.8163L28.0832 23.8189Z" fill="white"/>
<path d="M10.1072 25.0096C10.0486 25.0096 9.98993 25.007 9.93131 25.0017C9.46232 24.9566 9.03864 24.7312 8.74019 24.3679C8.44174 24.0046 8.30052 23.5485 8.34848 23.0818C8.39378 22.615 8.62028 22.1934 8.98534 21.8964L10.2644 20.8516C10.6295 20.5546 11.0904 20.4167 11.5568 20.4617C12.0258 20.5068 12.4494 20.7322 12.7479 21.0955C13.3661 21.8434 13.2568 22.9518 12.5054 23.567L11.2263 24.6119C10.9066 24.8718 10.5175 25.0096 10.1098 25.0096H10.1072ZM11.3809 21.3819C11.1944 21.3819 11.0078 21.4429 10.8533 21.5702L9.57424 22.615C9.40103 22.7556 9.29711 22.9545 9.27313 23.1746C9.25181 23.3947 9.31576 23.6095 9.45699 23.7818C9.59822 23.9516 9.79807 24.0576 10.0192 24.0815C10.2431 24.1054 10.4563 24.0364 10.6295 23.8985L11.9085 22.8537C12.2629 22.5647 12.3135 22.0422 12.0231 21.6895C11.8579 21.4907 11.6207 21.3872 11.3809 21.3872V21.3819Z" fill="white"/>
<path d="M11.3329 27.3512C11.2743 27.3512 11.2157 27.3485 11.1571 27.3432C10.6881 27.2982 10.2644 27.0727 9.96596 26.7094C9.66751 26.3461 9.52629 25.89 9.57425 25.4233C9.61955 24.9566 9.84605 24.5349 10.2111 24.2379L12.3322 22.5036C13.0836 21.8884 14.1975 21.9971 14.8157 22.7449C15.1141 23.1082 15.2554 23.5644 15.2074 24.0311C15.1621 24.4978 14.9356 24.9194 14.5705 25.2165L12.4495 26.9508C12.1297 27.2106 11.7406 27.3485 11.3329 27.3485V27.3512ZM13.4514 23.034C13.2648 23.034 13.0783 23.095 12.9238 23.2223L10.8027 24.9566C10.4483 25.2456 10.3976 25.768 10.6881 26.1207C10.8293 26.2905 11.0292 26.3965 11.2503 26.4177C11.4715 26.4416 11.6874 26.3753 11.8606 26.2348L13.9817 24.5005C14.1522 24.3599 14.2588 24.161 14.2828 23.9409C14.3041 23.7208 14.2375 23.506 14.0962 23.3337C13.931 23.1348 13.6939 23.0313 13.454 23.0313L13.4514 23.034Z" fill="white"/>
<path d="M13.2595 29.12C13.2009 29.12 13.1423 29.1173 13.0837 29.112C12.6147 29.0669 12.191 28.8415 11.8925 28.4782C11.5941 28.1149 11.4529 27.6588 11.5008 27.1921C11.5461 26.7254 11.7726 26.3037 12.1377 26.0067L13.7019 24.7285C14.0669 24.4315 14.5253 24.2936 14.9942 24.3387C15.4632 24.3838 15.8869 24.6092 16.1854 24.9725C16.8036 25.7203 16.6943 26.8288 15.9429 27.444L14.3787 28.7222C14.0589 28.9821 13.6699 29.12 13.2622 29.12H13.2595ZM14.8184 25.2589C14.6265 25.2589 14.4426 25.3252 14.2908 25.4472L12.7266 26.7254C12.556 26.8659 12.4495 27.0648 12.4281 27.2849C12.4068 27.505 12.4734 27.7198 12.612 27.8922C12.7532 28.0619 12.9531 28.1706 13.1743 28.1918C13.3954 28.2157 13.6113 28.1494 13.7845 28.0088L15.3486 26.7307C15.703 26.4416 15.7537 25.9192 15.4632 25.5665C15.322 25.3968 15.1221 25.2907 14.901 25.2695C14.8743 25.2695 14.845 25.2668 14.8184 25.2668V25.2589Z" fill="white"/>
<path d="M15.0475 31.0001C14.5359 31.0001 14.0296 30.7827 13.6832 30.3584C13.3847 29.9951 13.2435 29.539 13.2915 29.0722C13.3368 28.6055 13.5633 28.1839 13.9283 27.8869L15.2074 26.842C15.5725 26.545 16.0308 26.4071 16.4998 26.4522C16.9687 26.4973 17.3924 26.7227 17.6909 27.086C17.9893 27.4493 18.1306 27.9054 18.0826 28.3722C18.0373 28.8389 17.8108 29.2605 17.4457 29.5575L16.1667 30.6024C15.8389 30.8702 15.4419 31.0001 15.0475 31.0001ZM16.3239 27.3724C16.132 27.3724 15.9482 27.4387 15.7989 27.5607L14.5199 28.6055C14.3494 28.7461 14.2428 28.945 14.2215 29.1651C14.2001 29.3852 14.2668 29.6 14.4053 29.7723C14.6958 30.125 15.2234 30.1754 15.5751 29.8864L16.8542 28.8415C17.0247 28.701 17.1313 28.5021 17.1526 28.282C17.1739 28.0619 17.1073 27.8471 16.9687 27.6747C16.8275 27.505 16.6277 27.3963 16.4065 27.3751C16.3799 27.3724 16.3505 27.3698 16.3239 27.3698V27.3724Z" fill="white"/>
<path d="M18 10.1115C15.1994 10.1115 12.9185 7.84414 12.9185 5.05441C12.9185 2.26467 15.1968 0 18 0C19.0339 0 20.0305 0.307613 20.8806 0.891018C21.0937 1.03687 21.147 1.32592 21.0005 1.53541C20.8539 1.74491 20.5635 1.8006 20.3529 1.65475C19.6601 1.18007 18.8474 0.928144 18.0027 0.928144C15.7164 0.928144 13.8538 2.77913 13.8538 5.05706C13.8538 7.33499 15.7137 9.18597 18.0027 9.18597C20.2917 9.18597 22.1516 7.33499 22.1516 5.05706C22.1516 4.28802 21.9384 3.53755 21.5334 2.88785C21.3975 2.6704 21.4668 2.384 21.6853 2.24876C21.9038 2.11352 22.1916 2.18246 22.3275 2.39991C22.8231 3.19812 23.0843 4.11565 23.0843 5.05706C23.0843 7.84414 20.8059 10.1141 18.0027 10.1141L18 10.1115Z" fill="white"/>
<path d="M17.7789 7.23682C17.659 7.23682 17.5391 7.19174 17.4485 7.10158L15.7244 5.38584C15.5432 5.20551 15.5432 4.91116 15.7244 4.73083C15.9056 4.55051 16.2014 4.55051 16.3826 4.73083L17.7762 6.11774L21.5334 2.37865C21.7146 2.19833 22.0104 2.19833 22.1916 2.37865C22.3728 2.55898 22.3728 2.85333 22.1916 3.03366L18.1066 7.09893C18.016 7.18909 17.8961 7.23417 17.7762 7.23417L17.7789 7.23682Z" fill="white"/>
</g>
<defs>
<clipPath id="clip0_15_903">
<rect width="36" height="31" fill="white"/>
</clipPath>
</defs>
</svg>
