<svg width="23" height="23" viewBox="0 0 23 23" fill="none" xmlns="http://www.w3.org/2000/svg">
<path d="M5.16686 11.262C4.8464 10.9415 4.8464 10.424 5.16686 10.1039C5.48732 9.78343 6.00482 9.78343 6.32489 10.1039L10.6703 14.4494V0.821483C10.6703 0.369533 11.0398 0 11.4918 0C11.9437 0 12.3132 0.369533 12.3132 0.821483V14.449L16.6586 10.1035C16.9791 9.78305 17.4966 9.78305 17.817 10.1035C18.1375 10.424 18.1375 10.9415 17.817 11.2616L12.0671 17.0116C11.9027 17.1756 11.6976 17.2496 11.4841 17.2496C11.2706 17.2496 11.0651 17.1676 10.9011 17.0116L5.15115 11.2616H5.16763L5.16686 11.262ZM22.1781 15.607C21.7266 15.607 21.3567 15.9766 21.3567 16.4285V21.357H1.64294V16.4285C1.64294 15.9769 1.27341 15.607 0.82147 15.607C0.369527 15.607 0 15.9769 0 16.4285V21.357C0 22.2606 0.739438 23 1.64294 23H21.3571C22.2606 23 23 22.2606 23 21.357V16.4285C23 15.9769 22.6305 15.607 22.1785 15.607H22.1781Z" fill="white"/>
</svg>
